<?xml version="1.0" encoding="utf-8"?>
<!-- Generator: Adobe Illustrator 23.0.1, SVG Export Plug-In . SVG Version: 6.00 Build 0)  -->
<svg version="1.1" id="图层_1" xmlns="http://www.w3.org/2000/svg" xmlns:xlink="http://www.w3.org/1999/xlink" x="0px" y="0px"
	 viewBox="0 0 535 128" style="enable-background:new 0 0 535 128;" xml:space="preserve">
<style type="text/css">
	.st0{fill-rule:evenodd;clip-rule:evenodd;fill:#FFFFFF;}
</style>
<g>
	<g>
		<g transform="matrix(1,0,0,1,16,16)">
			<g transform="matrix(0.08000000,0,0,0.08000000,0,0)">
				<g transform="matrix(1,0,0,1,0,0)">
					<path class="st0" d="M370.7,1093.7c13-26.9,19.6-50,19.6-69.3v-337c0-22.1-7.3-40.7-21.9-55.8c-14.6-15.2-32.2-22.7-52.9-22.7
						H68.1l96.7-151H312c66,0,123.5,22.4,172.6,67.2s73.7,98.9,73.7,162.3v337.1c0,19.3,6.9,42.4,20.7,69.3L370.7,1093.7
						L370.7,1093.7z M-118.4,1093.7c13.8-26.9,20.7-50,20.7-69.3V527.1c0-18.6-6.9-42-20.7-70.3H70.4v567.7
						c0,19.3,6.5,42.4,19.6,69.3h-208.4C-118.4,1093.8-118.4,1093.7-118.4,1093.7z"/>
					<path class="st0" d="M1771.9,1093.7c13.8-26.9,20.7-50,20.7-69.3v-854c0-19.3-6.9-42.4-20.7-69.3h208.3
						c-13.8,26.9-20.7,50-20.7,69.3v772.4h250.9c49.9,0,92.4-16.2,127.7-48.6c35.3-32.4,53.3-72,54.1-118.9
						c0-42.7-19.9-83.1-59.8-121c-36.8-34.5-71-51.7-102.4-51.7h-165.7c-21.5,0-40.7,5.2-57.5,15.5l110.5-161.3h154.2
						c66,0,129.7,31.4,191,94.1c65.2,66.9,97.8,141.7,97.8,224.4c0,88.2-28.4,163.4-85.2,225.4s-128.5,93.1-215.2,93.1
						L1771.9,1093.7L1771.9,1093.7L1771.9,1093.7z"/>
					<path class="st0" d="M2695.3,1093.7c13.8-26.9,20.7-50,20.7-69.3v-854c0-19.3-6.9-42.4-20.7-69.3h208.3
						c-13,26.9-19.6,50-19.6,69.3v854.1c0,19.3,6.5,42.4,19.6,69.3L2695.3,1093.7L2695.3,1093.7z"/>
					<path class="st0" d="M4251.2,1093.7c11.5-14.5,17.3-31.4,17.3-50.7V151.8c0-18.6-5.8-35.5-17.3-50.7h443.1
						c80.6,0,149.2,25.5,206,76.5s85.2,112.4,85.2,184.1c0,72.4-28.4,134.1-85.2,185.1c-56.8,51-125.4,76.5-206,76.5l-197.9-1
						l77.1-137.5l118.5-1c39.1,0,72.9-11.7,101.3-35.2c28.4-23.4,43-51.7,43.7-84.8c0-33.1-13.8-61.4-41.4-84.8
						s-61.4-35.2-101.3-35.2h-255.5v799.3c0,19.3,6.1,36.2,18.4,50.7h-206L4251.2,1093.7L4251.2,1093.7z"/>
					<path class="st0" d="M5048.7,1093.7c13.8-26.9,20.7-50,20.7-69.3V527.1c0-19.3-6.9-42.4-20.7-69.3l371.7-1
						c61.4,0,110.9,7.9,148.5,23.8c27.6,12.4,59.1,35.2,94.4,68.2L5578,681.2c-29.9-48.3-96.7-72.4-200.2-72.4h-141.5v415.7
						c0,19.3,6.9,42.4,20.7,69.3h-208.3V1093.7z"/>
					<path class="st0" d="M5679.3,769.1c0-92.4,36.4-171.3,109.3-236.8s160.7-98.2,263.5-98.2s190.6,32.7,263.5,98.2
						S6425,676.7,6425,769.1s-36.4,171.3-109.3,236.8s-160.7,98.2-263.5,98.2s-190.6-32.7-263.5-98.2S5679.3,861.4,5679.3,769.1z
						 M5830,769.1c0,55.1,21.5,102,64.4,140.6c43,38.6,95.5,58.2,157.7,58.9c60.6,0,112.4-19.3,155.4-57.9
						c43-38.6,64.8-85.8,65.6-141.7c0-54.5-21.5-101-64.4-139.6c-43-38.6-95.1-58.2-156.5-58.9c-61.4,0-113.5,19.3-156.5,57.9
						C5852.7,667,5830.8,713.9,5830,769.1z"/>
				</g>
			</g>
		</g>
		<path class="st0" d="M69.6,103.4l39.8-83.9l39.8,83.9h-13.3l-11.8-25H94.7l-11.8,25H69.6z M109.4,44.8L99.2,67.6h20.2L109.4,44.8z
			"/>
	</g>
	<path class="st0" d="M313.6,81.5h-36v-8.8H303c-1.2-3.5-3.2-6.3-6-8.4s-6-3.2-9.7-3.3c-4.6,0-8.5,1.6-11.6,4.7
		c-3.1,3.1-4.7,7.1-4.8,11.9c0,4.7,1.5,8.6,4.6,11.8c3.1,3.2,7,4.8,11.7,4.8c4.5,0,8.5-1.7,12.1-5.2l7.7,6.5
		c-5.2,5.8-11.8,8.6-19.9,8.6c-7.6,0-13.9-2.5-19-7.5s-7.7-11.3-7.8-18.9c0-7.5,2.6-13.8,7.8-19s11.6-7.8,19.3-7.8
		c7.2,0,13.5,2.6,18.7,7.8s7.9,11.5,7.9,18.8c0,0.7,0,1.4,0,2.1C313.8,80.5,313.6,81.1,313.6,81.5z"/>
</g>
</svg>
